<?xml version="1.0" encoding="iso-8859-1"?>
<!-- Uploaded to: SVG Repo, www.svgrepo.com, Generator: SVG Repo Mixer Tools -->
<svg fill="#000000" version="1.1" id="Layer_1" xmlns="http://www.w3.org/2000/svg" xmlns:xlink="http://www.w3.org/1999/xlink" 
	 viewBox="0 0 513.093 513.093" xml:space="preserve">
<g>
	<g>
		<path d="M156.759,416.914v39.852c0,22.194-18.046,40.249-40.229,40.249c-22.182,0-40.229-18.056-40.229-40.249V15.673h273.763
			v392.882h15.673V0H60.629v456.767c0,30.836,25.078,56.278,55.902,56.278c0.111,0,0.522,0,0.522,0v-0.26l240.361,0.308
			c14.941,0,29.033-5.884,39.765-16.569c10.751-10.704,16.625-24.824,16.625-39.757v-39.852H156.759z M398.131,456.767
			c0,22.036-18.69,40.653-40.801,40.653l-202.177-0.259c10.643-10.188,17.281-24.53,17.281-40.394v-24.179h225.698V456.767z"/>
	</g>
</g>
<g>
	<g>
		<rect x="108.694" y="48.065" width="87.771" height="15.673"/>
	</g>
</g>
<g>
	<g>
		<rect x="108.694" y="80.457" width="32.392" height="15.673"/>
	</g>
</g>
<g>
	<g>
		<rect x="108.694" y="144.196" width="32.392" height="15.673"/>
	</g>
</g>
<g>
	<g>
		<rect x="156.759" y="144.196" width="160.914" height="15.673"/>
	</g>
</g>
<g>
	<g>
		<rect x="108.694" y="176.588" width="32.392" height="15.673"/>
	</g>
</g>
<g>
	<g>
		<rect x="156.759" y="176.588" width="160.914" height="15.673"/>
	</g>
</g>
<g>
	<g>
		<rect x="108.694" y="207.935" width="32.392" height="15.673"/>
	</g>
</g>
<g>
	<g>
		<rect x="156.759" y="207.935" width="160.914" height="15.673"/>
	</g>
</g>
<g>
	<g>
		<rect x="108.694" y="240.327" width="32.392" height="15.673"/>
	</g>
</g>
<g>
	<g>
		<rect x="156.759" y="240.327" width="160.914" height="15.673"/>
	</g>
</g>
<g>
	<g>
		<rect x="108.694" y="272.718" width="32.392" height="15.673"/>
	</g>
</g>
<g>
	<g>
		<rect x="156.759" y="272.718" width="160.914" height="15.673"/>
	</g>
</g>
<g>
	<g>
		<rect x="260.204" y="305.11" width="57.469" height="15.673"/>
	</g>
</g>
<g>
	<g>
		<rect x="220.498" y="305.11" width="24.033" height="15.673"/>
	</g>
</g>
<g>
	<g>
		<rect x="260.204" y="336.457" width="57.469" height="15.673"/>
	</g>
</g>
<g>
	<g>
		<rect x="220.498" y="336.457" width="24.033" height="15.673"/>
	</g>
</g>
<g>
	<g>
		<polygon points="196.465,368.849 196.465,408.555 212.139,408.555 212.139,384.522 300.955,384.522 300.955,408.555 
			316.629,408.555 316.629,368.849 		"/>
	</g>
</g>
<g>
	<g>
		<rect x="252.89" y="48.065" width="16.718" height="15.673"/>
	</g>
</g>
<g>
	<g>
		<rect x="276.922" y="48.065" width="15.674" height="15.673"/>
	</g>
</g>
<g>
	<g>
		<rect x="300.955" y="48.065" width="16.718" height="15.673"/>
	</g>
</g>
<g>
	<g>
		<rect x="398.131" y="40.751" width="15.673" height="22.988"/>
	</g>
</g>
<g>
	<g>
		<path d="M429.111,104.49V72.079h-48.086v240.429h17.105v23.949h15.673v-23.948h15.307V120.163h7.681v72.098h15.673V104.49H429.111
			z M413.083,296.48h-16.029V120.163h16.029V296.48z M413.083,104.49h-16.029V88.108h16.029V104.49z"/>
	</g>
</g>
<g>
	<g>
		<rect x="397.086" y="344.816" width="16.718" height="15.673"/>
	</g>
</g>
</svg>